<?xml version="1.0" encoding="UTF-8"?>
<svg xmlns="http://www.w3.org/2000/svg" xmlns:xlink="http://www.w3.org/1999/xlink" id="Layer_1" viewBox="0 0 4842 765">
  <defs>
    <style>      .st0 {        fill: #f2f0ef;      }      .st1 {        fill: url(#linear-gradient2);      }      .st2 {        fill: url(#linear-gradient1);      }      .st3 {        fill: url(#linear-gradient);      }    </style>
    <linearGradient id="linear-gradient" x1="570.3" y1="153.3" x2="1799.1" y2="604.3" gradientUnits="userSpaceOnUse">
      <stop offset=".1" stop-color="#ee5c29"></stop>
      <stop offset=".5" stop-color="#02112a"></stop>
      <stop offset=".9" stop-color="#00b7ff"></stop>
    </linearGradient>
    <linearGradient id="linear-gradient1" x1="1263.2" y1="384.3" x2="1825.7" y2="384.3" gradientTransform="translate(0 765.9) scale(1 -1)" gradientUnits="userSpaceOnUse">
      <stop offset=".3" stop-color="#fff" stop-opacity="0"></stop>
      <stop offset=".6" stop-color="#fff" stop-opacity="0"></stop>
      <stop offset=".7" stop-color="#fff" stop-opacity=".2"></stop>
      <stop offset=".9" stop-color="#f2f0ef"></stop>
    </linearGradient>
    <linearGradient id="linear-gradient2" x1="310.5" x2="873" gradientTransform="translate(1436.4 -2.7) rotate(-180) scale(1 -1)" xlink:href="#linear-gradient1"></linearGradient>
  </defs>
  <path class="st0" d="M0,603.1h89.3L233.4,227.1l147.3,376h90.7l-172.7-442.7h-126L0,603.1Z"></path>
  <path class="st0" d="M4841.1,160.4l-176.7,287.4v155.4h-84.7v-155.4l-176-287.4h96.7l121.3,198.7h1.3l120-198.7h98Z"></path>
  <path class="st0" d="M4354.1,160.4v79.3h-168.7v363.4h-84V239.7h-168.7v-79.3h421.4Z"></path>
  <path class="st0" d="M3754.4,160.4h84.7v442.7h-84.7V160.4Z"></path>
  <path class="st0" d="M3294.1,297.1v306h-84.7V160.4h75.3l261.4,305.4V160.4h84.7v442.7h-76.7l-260-306Z"></path>
  <path class="st0" d="M3001.7,160.4h84.7v442.7h-84.7V160.4Z"></path>
  <path class="st0" d="M2579.1,421.1v182h-84.7V160.4h404v79.3h-319.4v102h234.7v79.3h-234.7Z"></path>
  <path class="st0" d="M2034.2,297.1v306h-84.7V160.4h75.3l261.4,305.4V160.4h84.7v442.7h-76.7l-260-306Z"></path>
  <rect class="st3" x="563.9" y="160.4" width="1257" height="442.4"></rect>
  <path class="st2" d="M1825.7,602.8h-562.5V160.4h562.5v442.4Z"></path>
  <path class="st1" d="M563.4,160.4h562.5v442.4h-562.5V160.4Z"></path>
  <path class="st0" d="M1536.1,474.3s-260.5-58.3-340.7-12c-80.2,46.3-132,196.8-132,196.8,0,0,30.3-156.3-15.9-236.5-46.3-80.2-196.8-132-196.8-132,0,0,260.5,58.3,340.6,12,80.2-46.3,132-196.8,132-196.8,0,0-30.4,156.3,15.9,236.5,46.3,80.2,196.8,132,196.8,132Z"></path>
</svg>
